<?xml version="1.0" encoding="UTF-8" standalone="no"?>
<svg
   viewBox="0 0 256 256"
   version="1.1"
   id="svg1"
   sodipodi:docname="com.github.LotusPetal392.EtherealWaves.svg"
   inkscape:version="1.4.2 (ebf0e940d0, 2025-05-08)"
   width="256"
   height="256"
   xmlns:inkscape="http://www.inkscape.org/namespaces/inkscape"
   xmlns:sodipodi="http://sodipodi.sourceforge.net/DTD/sodipodi-0.dtd"
   xmlns:xlink="http://www.w3.org/1999/xlink"
   xmlns="http://www.w3.org/2000/svg"
   xmlns:svg="http://www.w3.org/2000/svg">
  <sodipodi:namedview
     id="namedview1"
     pagecolor="#ffffff"
     bordercolor="#000000"
     borderopacity="0.25"
     inkscape:showpageshadow="2"
     inkscape:pageopacity="0.0"
     inkscape:pagecheckerboard="0"
     inkscape:deskcolor="#d1d1d1"
     inkscape:zoom="1.4726563"
     inkscape:cx="43.119363"
     inkscape:cy="85.559682"
     inkscape:window-width="1920"
     inkscape:window-height="971"
     inkscape:window-x="0"
     inkscape:window-y="0"
     inkscape:window-maximized="1"
     inkscape:current-layer="svg1" />
  <defs
     id="defs1">
    <linearGradient
       id="linearGradient5"
       inkscape:collect="always">
      <stop
         style="stop-color:#2521d5;stop-opacity:0.52549022;"
         offset="0.5"
         id="stop8" />
      <stop
         style="stop-color:#000c48;stop-opacity:0.60447401;"
         offset="1"
         id="stop6" />
    </linearGradient>
    <linearGradient
       id="linearGradient2"
       inkscape:collect="always">
      <stop
         style="stop-color:#6d3db3;stop-opacity:1;"
         offset="0"
         id="stop2" />
      <stop
         style="stop-color:#b89dde;stop-opacity:1;"
         offset="1"
         id="stop3" />
    </linearGradient>
    <linearGradient
       inkscape:collect="always"
       xlink:href="#linearGradient2"
       id="linearGradient3"
       x1="90.688835"
       y1="121.23442"
       x2="37.311138"
       y2="6.765584"
       gradientUnits="userSpaceOnUse"
       gradientTransform="matrix(2.0268817,0,0,2.0114051,-1.7204263,-1.7072897)" />
    <linearGradient
       inkscape:collect="always"
       xlink:href="#linearGradient5"
       id="linearGradient6"
       x1="45.674286"
       y1="3.5705178"
       x2="82.325775"
       y2="123.45213"
       gradientUnits="userSpaceOnUse"
       gradientTransform="scale(2.0000001)" />
    <filter
       inkscape:label="Inset"
       inkscape:menu="Shadows and Glows"
       inkscape:menu-tooltip="Shadowy outer bevel"
       style="color-interpolation-filters:sRGB"
       id="filter54"
       x="-0.0609449"
       y="-0.061179236"
       width="1.1218898"
       height="1.1223584">
      <feMorphology
         result="result1"
         in="SourceAlpha"
         operator="erode"
         radius="1"
         id="feMorphology53" />
      <feGaussianBlur
         stdDeviation="3.6"
         in="result1"
         result="result0"
         id="feGaussianBlur53" />
      <feDiffuseLighting
         surfaceScale="-5"
         id="feDiffuseLighting53">
        <feDistantLight
           elevation="45"
           azimuth="225"
           id="feDistantLight53" />
      </feDiffuseLighting>
      <feComposite
         in2="result0"
         operator="in"
         result="result91"
         id="feComposite53" />
      <feComposite
         in="SourceGraphic"
         in2="result91"
         id="feComposite54" />
    </filter>
  </defs>
  <rect
     style="fill:#4f2c83;fill-opacity:1;stroke-width:3.77951"
     id="rect1"
     width="256"
     height="256"
     x="0"
     y="0"
     rx="39.72414"
     ry="39.72414"
     inkscape:label="Background Shadow" />
  <rect
     style="fill:url(#linearGradient3);stroke-width:3.76505"
     id="rect2"
     width="256"
     height="254.04527"
     x="0"
     y="0"
     rx="39.646366"
     ry="39.646366"
     inkscape:label="Background" />
  <rect
     style="fill:url(#linearGradient6);fill-opacity:1;stroke-width:3.69444"
     id="rect5"
     width="250.71828"
     height="249.75795"
     x="2.6408691"
     y="2.1436617"
     rx="37.778168"
     ry="37.778168"
     inkscape:label="Background Interior" />
  <g
     id="g30"
     transform="matrix(2.0000001,0,0,2.0000001,-0.24010001,-14.717082)"
     inkscape:label="Waves"
     style="filter:url(#filter52)">
    <path
       d="M 12.3831,54.7379 C 31.3493,43.4542 47.8932,40.5498 66.8809,39.1328 c 0.0182,-0.0013 0.0364,-0.0027 0.0545,-0.004 15.8633,-1.1644 34.5546,5.9517 48.3746,13.3922 0.183,0.0988 0.365,0.1975 0.547,0.2963 C 98.8292,48.5746 85.0255,46.1087 68.8833,45.8693 68.4576,45.863 68.0303,45.8582 67.6012,45.855 51.7328,45.7364 35.0981,45.9257 12.3831,54.7379 Z"
       style="fill:#ffffff;fill-opacity:1;stroke:none;stroke-width:1.89;stroke-dasharray:none;stroke-opacity:1"
       id="path27"
       inkscape:label="Wave 4" />
    <path
       d="m 21.4421,74.798048 c 15.6348,-9.6425 29.2857,-10.7544 44.925,-12.1179 0.0149,-0.0013 0.0297,-0.0026 0.0446,-0.0039 13.1761,-1.1436 28.3089,4.3262 39.9413,10.3011 0.09,0.0598 0.18,0.1197 0.27,0.1797 -14.2115,-3.361 -25.4382,-5.1054 -38.6854,-4.9938 -0.3499,0.003 -0.701,0.006 -1.0535,0.0091 -13.0205,0.1125 -26.8085,-0.8625 -45.442,6.6257 z"
       style="fill:#ffffff;fill-opacity:1;stroke:none;stroke-width:1.89;stroke-dasharray:none;stroke-opacity:1"
       id="path28"
       inkscape:label="Wave 3" />
    <path
       d="m 30.5012,91.123348 c 12.3034,-8.0013 23.0612,-7.3205 35.3521,-8.6307 0.0115,-0.0012 0.023,-0.0024 0.0346,-0.0037 10.489,-1.1229 22.0637,2.7007 31.5084,7.2099 -0.0024,0.0209 -0.005,0.042 -0.0076,0.0631 -11.3949,-2.4792 -20.0446,-3.5021 -30.3968,-3.0395 -0.2741,0.0123 -0.549,0.023 -0.8249,0.0324 -10.1727,0.3436 -21.114,-1.7956 -35.6658,4.3685 z"
       style="fill:#ffffff;fill-opacity:1;stroke:none;stroke-width:1.89;stroke-dasharray:none;stroke-opacity:1"
       id="path29"
       inkscape:label="Wave 2" />
    <path
       d="m 39.5603,103.714 c 8.9719,-6.3602 16.8367,-3.8868 25.7792,-5.1436 0.0082,-0.0011 0.0164,-0.0023 0.0246,-0.0034 7.8019,-1.1022 15.8185,1.0752 23.0756,4.119 -0.0953,-0.018 -0.1904,-0.036 -0.2852,-0.054 -8.5784,-1.597 -14.6512,-1.899 -22.1084,-1.085 -0.1982,0.021 -0.3969,0.04 -0.5962,0.056 -7.3248,0.574 -15.4194,-2.729 -25.8896,2.111 z"
       style="fill:#ffffff;fill-opacity:1;stroke:none;stroke-width:1.89;stroke-dasharray:none;stroke-opacity:1"
       id="path30"
       inkscape:label="Wave 1" />
  </g>
</svg>
